<?xml version="1.0" encoding="UTF-8" standalone="no"?>
<!-- Created with Inkscape (http://www.inkscape.org/) -->

<svg
   xmlns:dc="http://purl.org/dc/elements/1.1/"
   xmlns:cc="http://creativecommons.org/ns#"
   xmlns:rdf="http://www.w3.org/1999/02/22-rdf-syntax-ns#"
   xmlns:svg="http://www.w3.org/2000/svg"
   xmlns="http://www.w3.org/2000/svg"
   xmlns:sodipodi="http://sodipodi.sourceforge.net/DTD/sodipodi-0.dtd"
   xmlns:inkscape="http://www.inkscape.org/namespaces/inkscape"
   width="235.23814mm"
   height="47.564999mm"
   viewBox="0 0 235.23814 47.564999"
   version="1.1"
   id="svg8"
   inkscape:version="0.92.4 (5da689c313, 2019-01-14)"
   sodipodi:docname="NUMB3RS-flat.svg">
  <defs
     id="defs2" />
  <sodipodi:namedview
     id="base"
     pagecolor="#ffffff"
     bordercolor="#666666"
     borderopacity="1.0"
     inkscape:pageopacity="0.0"
     inkscape:pageshadow="2"
     inkscape:zoom="0.5"
     inkscape:cx="-435.8219"
     inkscape:cy="92.51241"
     inkscape:document-units="mm"
     inkscape:current-layer="text817"
     showgrid="false"
     showguides="true"
     inkscape:guide-bbox="true"
     inkscape:window-width="1920"
     inkscape:window-height="1132"
     inkscape:window-x="0"
     inkscape:window-y="0"
     inkscape:window-maximized="1"
     fit-margin-top="1"
     fit-margin-left="1"
     fit-margin-right="1"
     fit-margin-bottom="1">
    <sodipodi:guide
       position="91.093406,45.564945"
       orientation="0,1"
       id="guide821"
       inkscape:locked="false" />
    <sodipodi:guide
       position="81.471706,2.0000096"
       orientation="0,1"
       id="guide823"
       inkscape:locked="false" />
    <sodipodi:guide
       position="23.783244,0.94555056"
       orientation="1,0"
       id="guide848"
       inkscape:locked="false" />
    <sodipodi:guide
       position="1.0235488,23.783395"
       orientation="0,1"
       id="guide850"
       inkscape:locked="false" />
  </sodipodi:namedview>
  <metadata
     id="metadata5">
    <rdf:RDF>
      <cc:Work
         rdf:about="">
        <dc:format>image/svg+xml</dc:format>
        <dc:type
           rdf:resource="http://purl.org/dc/dcmitype/StillImage" />
        <dc:title></dc:title>
      </cc:Work>
    </rdf:RDF>
  </metadata>
  <g
     inkscape:label="Ebene 1"
     inkscape:groupmode="layer"
     id="layer1"
     transform="translate(-40.670473,-164.30515)">
    <g
       aria-label="NUMB3RS"
       style="font-style:normal;font-variant:normal;font-weight:bold;font-stretch:condensed;font-size:10.58333302px;line-height:125%;font-family:'Open Sans Condensed';-inkscape-font-specification:'Open Sans Condensed, Bold Condensed';text-align:center;letter-spacing:0px;word-spacing:0px;writing-mode:lr-tb;text-anchor:middle;fill:#cceaf5;fill-opacity:1;stroke:none;stroke-width:0.26458332px;stroke-linecap:butt;stroke-linejoin:miter;stroke-opacity:1"
       id="text817">
      <path
         d="m 93.452609,210.06548 v -43.6372 h 8.991601 l 4.0132,20.8788 v -20.8788 h 8.4328 v 43.6372 h -8.5344 l -4.3688,-21.844 v 21.844 z"
         style="font-style:normal;font-variant:normal;font-weight:normal;font-stretch:normal;font-size:50.79999924px;font-family:Anton;-inkscape-font-specification:'Anton, Normal';font-variant-ligatures:normal;font-variant-caps:normal;font-variant-numeric:normal;font-feature-settings:normal;text-align:center;writing-mode:lr-tb;text-anchor:middle;fill:#cceaf5;fill-opacity:1;stroke-width:0.26458332px"
         id="path1395" />
      <path
         d="m 128.86259,210.47188 q -5.3848,0 -8.0264,-3.048 -2.5908,-3.048 -2.5908,-9.0424 v -31.9532 h 8.4836 v 31.5976 q 0,2.0828 0.4064,3.2512 0.4064,1.1684 1.7272,1.1684 1.3208,0 1.7272,-1.1176 0.4064,-1.1684 0.4064,-3.302 v -31.5976 h 8.4836 v 31.9532 q 0,5.9944 -2.6416,9.0424 -2.5908,3.048 -7.9756,3.048 z"
         style="font-style:normal;font-variant:normal;font-weight:normal;font-stretch:normal;font-size:50.79999924px;font-family:Anton;-inkscape-font-specification:'Anton, Normal';font-variant-ligatures:normal;font-variant-caps:normal;font-variant-numeric:normal;font-feature-settings:normal;text-align:center;writing-mode:lr-tb;text-anchor:middle;fill:#cceaf5;fill-opacity:1;stroke-width:0.26458332px"
         id="path1397" />
      <path
         d="m 142.86354,210.06548 v -43.6372 h 13.3096 l 3.6576,26.6192 3.6576,-26.6192 h 13.4112 v 43.6372 h -7.9756 v -31.4452 l -5.0292,31.4452 h -7.8232 l -5.334,-31.4452 v 31.4452 z"
         style="font-style:normal;font-variant:normal;font-weight:normal;font-stretch:normal;font-size:50.79999924px;font-family:Anton;-inkscape-font-specification:'Anton, Normal';font-variant-ligatures:normal;font-variant-caps:normal;font-variant-numeric:normal;font-feature-settings:normal;text-align:center;writing-mode:lr-tb;text-anchor:middle;fill:#cceaf5;fill-opacity:1;stroke-width:0.26458332px"
         id="path1399" />
      <path
         d="m 180.76511,166.42828 h 11.8364 q 4.7752,0 6.9088,2.3368 2.1844,2.3368 2.1844,7.62 v 1.9304 q 0,6.2484 -4.4704,7.4676 2.7432,0.7112 3.8608,3.302 1.1176,2.5908 1.1176,6.858 0,6.9596 -2.0828,10.5664 -2.0828,3.556 -7.5184,3.556 h -11.8364 z m 10.3124,16.4084 q 1.1176,0 1.524,-0.8128 0.4064,-0.8636 0.4064,-2.3876 v -4.3688 q 0,-2.1336 -1.8796,-2.1336 h -1.8288 v 9.7028 z m -0.9144,19.558 q 3.4036,0 3.4036,-3.2512 v -5.4356 q 0,-1.9812 -0.6096,-2.9972 -0.5588,-1.016 -2.032,-1.016 h -1.6256 v 12.6492 z"
         style="font-style:normal;font-variant:normal;font-weight:normal;font-stretch:normal;font-size:50.79999924px;font-family:Anton;-inkscape-font-specification:'Anton, Normal';font-variant-ligatures:normal;font-variant-caps:normal;font-variant-numeric:normal;font-feature-settings:normal;text-align:center;writing-mode:lr-tb;text-anchor:middle;fill:#cceaf5;fill-opacity:1;stroke-width:0.26458332px"
         id="path1401" />
      <path
         d="m 215.1321,210.57348 q -5.7404,0 -8.382,-2.9972 -2.6416,-3.048 -2.6416,-9.2456 v -4.572 h 8.9408 v 4.572 q 0,1.9812 0.508,3.0988 0.508,1.0668 2.032,1.0668 1.0668,0 1.524,-0.762 0.508,-0.762 0.6096,-1.778 0.1016,-1.0668 0.1016,-3.048 v -1.0668 q 0,-5.6388 -3.7084,-5.6388 -0.6604,0 -0.8636,0.0508 v -7.8232 q 2.3368,0 3.5052,-1.016 1.1684,-1.0668 1.1684,-3.3528 0,-3.7084 -2.1336,-3.7084 -1.3208,0 -1.7272,0.6604 -0.3556,0.6604 -0.508,1.6764 -0.1016,1.016 -0.1524,1.4732 v 1.3208 h -9.0424 l -0.0508,-1.524 q 0.0508,-5.9944 2.8448,-8.7884 2.794,-2.8448 8.5852,-2.8448 11.1252,0 11.1252,11.6332 0,3.4036 -0.9144,5.4356 -0.9144,1.9812 -3.1496,2.794 1.8288,0.9144 2.6924,2.286 0.9144,1.3208 1.1684,3.2512 0.3048,1.9304 0.3048,5.1816 0,6.7564 -2.8448,10.2108 -2.794,3.4544 -8.9916,3.4544 z"
         style="font-style:normal;font-variant:normal;font-weight:normal;font-stretch:normal;font-size:50.79999924px;font-family:Anton;-inkscape-font-specification:'Anton, Normal';font-variant-ligatures:normal;font-variant-caps:normal;font-variant-numeric:normal;font-feature-settings:normal;text-align:center;writing-mode:lr-tb;text-anchor:middle;fill:#cceaf5;fill-opacity:1;stroke-width:0.26458332px"
         id="path1403" />
      <path
         d="m 230.17604,166.42828 h 13.4112 q 3.2004,0 4.9276,1.4732 1.778,1.4224 2.3876,4.064 0.6096,2.5908 0.6096,6.6548 0,3.7084 -0.9652,5.7912 -0.9652,2.0828 -3.3528,2.8956 1.9812,0.4064 2.8448,1.9812 0.9144,1.5748 0.9144,4.2672 l -0.1016,16.51 h -8.5344 v -17.0688 q 0,-1.8288 -0.7112,-2.3368 -0.7112,-0.508 -2.5908,-0.508 v 19.9136 h -8.8392 z m 10.9728,16.1544 q 1.8288,0 1.8288,-3.9624 0,-1.7272 -0.1524,-2.5908 -0.1524,-0.8636 -0.5588,-1.1684 -0.4064,-0.3556 -1.1684,-0.3556 h -2.032 v 8.0772 z"
         style="font-style:normal;font-variant:normal;font-weight:normal;font-stretch:normal;font-size:50.79999924px;font-family:Anton;-inkscape-font-specification:'Anton, Normal';font-variant-ligatures:normal;font-variant-caps:normal;font-variant-numeric:normal;font-feature-settings:normal;text-align:center;writing-mode:lr-tb;text-anchor:middle;fill:#cceaf5;fill-opacity:1;stroke-width:0.26458332px"
         id="path1405" />
      <path
         d="m 264.74862,210.47188 q -5.9436,0 -8.5852,-2.9464 -2.6416,-2.9464 -2.6416,-9.4996 v -4.2672 h 8.5852 v 5.4356 q 0,3.2512 2.0828,3.2512 1.1684,0 1.6256,-0.6604 0.4572,-0.7112 0.4572,-2.3368 0,-2.1336 -0.508,-3.5052 -0.508,-1.4224 -1.3208,-2.3368 -0.762,-0.9652 -2.794,-2.9464 l -3.7592,-3.7592 q -4.3688,-4.2672 -4.3688,-9.4488 0,-5.588 2.54,-8.4836 2.5908,-2.9464 7.5184,-2.9464 5.8928,0 8.4836,3.1496 2.5908,3.0988 2.5908,9.7536 h -8.89 l -0.0508,-2.9972 q 0,-0.8636 -0.508,-1.3716 -0.4572,-0.508 -1.3208,-0.508 -1.016,0 -1.524,0.5588 -0.508,0.5588 -0.508,1.524 0,2.1336 2.4384,4.4196 l 5.08,4.8768 q 1.778,1.7272 2.9464,3.302 1.1684,1.524 1.8796,3.6576 0.7112,2.0828 0.7112,4.9784 0,6.4516 -2.3876,9.8044 -2.3368,3.302 -7.7724,3.302 z"
         style="font-style:normal;font-variant:normal;font-weight:normal;font-stretch:normal;font-size:50.79999924px;font-family:Anton;-inkscape-font-specification:'Anton, Normal';font-variant-ligatures:normal;font-variant-caps:normal;font-variant-numeric:normal;font-feature-settings:normal;text-align:center;writing-mode:lr-tb;text-anchor:middle;fill:#cceaf5;fill-opacity:1;stroke-width:0.26458332px"
         id="path1407" />
    </g>
    <circle
       style="opacity:1;fill:none;fill-opacity:1;fill-rule:nonzero;stroke:#cceaf5;stroke-width:2;stroke-linecap:butt;stroke-linejoin:round;stroke-miterlimit:4;stroke-dasharray:none;stroke-dashoffset:0;stroke-opacity:1"
       id="path819"
       cx="64.452972"
       cy="188.08765"
       r="21.782499" />
    <path
       style="opacity:1;fill:#cceaf5;fill-opacity:1;fill-rule:nonzero;stroke:none;stroke-width:1.99999988;stroke-linecap:butt;stroke-linejoin:miter;stroke-miterlimit:4;stroke-dasharray:none;stroke-dashoffset:0;stroke-opacity:1"
       id="path846"
       sodipodi:type="arc"
       sodipodi:cx="64.45372"
       sodipodi:cy="188.08701"
       sodipodi:rx="19.5"
       sodipodi:ry="19.500032"
       sodipodi:start="4.7141916"
       sodipodi:end="6.2831853"
       d="m 64.488871,168.587 a 19.5,19.500032 0 0 1 19.464849,19.50001 l -19.5,0 z" />
  </g>
</svg>
